<?xml version="1.0" encoding="utf-8"?>
<!-- Generator: Adobe Illustrator 18.1.1, SVG Export Plug-In . SVG Version: 6.00 Build 0)  -->
<!DOCTYPE svg PUBLIC "-//W3C//DTD SVG 1.1//EN" "http://www.w3.org/Graphics/SVG/1.1/DTD/svg11.dtd">
<svg version="1.1" id="Layer_1" xmlns="http://www.w3.org/2000/svg" xmlns:xlink="http://www.w3.org/1999/xlink" x="0px" y="0px"
	 viewBox="0 0 183 65" enable-background="new 0 0 183 65" xml:space="preserve">
<rect fill="#F8F8F8" width="183" height="65"/>
<path d="M96.2,18.3c1.4-1.6,2.3-3.9,2-6.2c-2,0.1-4.3,1.3-5.7,2.9c-1.3,1.5-2.4,3.8-2,6C92.6,21.2,94.8,19.9,96.2,18.3 M101.1,32.7
	c0.1,5.9,5.2,7.8,5.2,7.8c0,0.1-0.8,2.8-2.7,5.5c-1.6,2.4-3.3,4.7-5.9,4.8c-2.6,0-3.4-1.5-6.4-1.5c-3,0-3.9,1.5-6.3,1.6
	c-2.6,0.1-4.5-2.5-6.1-4.9c-3.3-4.8-5.9-13.6-2.5-19.5c1.7-2.9,4.7-4.8,8-4.9c2.5,0,4.9,1.7,6.4,1.7c1.5,0,4.4-2.1,7.4-1.8
	c1.3,0.1,4.8,0.5,7.1,3.8C105.1,25.4,101,27.8,101.1,32.7"/>
</svg>
