<?xml version="1.0" encoding="utf-8"?>
<!-- Generator: Adobe Illustrator 18.1.1, SVG Export Plug-In . SVG Version: 6.00 Build 0)  -->
<!DOCTYPE svg PUBLIC "-//W3C//DTD SVG 1.1//EN" "http://www.w3.org/Graphics/SVG/1.1/DTD/svg11.dtd">
<svg version="1.1" id="Layer_1" xmlns="http://www.w3.org/2000/svg" xmlns:xlink="http://www.w3.org/1999/xlink" x="0px" y="0px"
	 viewBox="0 0 183 65" enable-background="new 0 0 183 65" xml:space="preserve">
<g>
	<rect fill="#F8F8F8" width="183" height="65"/>
	<g>
		<g>
			<polygon fill-rule="evenodd" clip-rule="evenodd" fill="#29338A" points="122.4,35.8 122.5,30 124.7,30 124.7,37.7 120.8,37.7 
				116.1,31.9 116.1,37.7 113.8,37.7 113.8,30.1 113.9,30 117.8,30 122.4,35.8 			"/>
			<path fill-rule="evenodd" clip-rule="evenodd" fill="#29338A" d="M149.9,30l0,7.7h-2.4l0-7.7h0C148.3,30,149.1,30,149.9,30
				L149.9,30z"/>
			<polygon fill-rule="evenodd" clip-rule="evenodd" fill="#29338A" points="139.2,33.7 139.2,33.8 139.5,33.5 143.3,30.1 
				146.5,30.1 142.1,33.8 142.1,33.8 147,37.7 143.6,37.7 139.2,33.8 139.2,33.8 139.2,37.7 136.8,37.7 136.8,30.1 139.2,30.1 
				139.2,33.7 			"/>
			<path fill-rule="evenodd" clip-rule="evenodd" fill="#29338A" d="M133,30c1,0,2.1,0.1,2.6,1.1c0.1,0.3,0.2,0.6,0.2,0.9l0,4.2
				c0,0.6-0.4,1.1-0.9,1.3c-1,0.5-2.3,0.3-3.5,0.4c-1.4,0-2.9,0.1-4.2-0.2c-0.6-0.1-1.2-0.6-1.4-1.2l-0.1-0.5l0-4.4
				c0-0.6,0.5-1.1,1-1.3c0.8-0.3,1.7-0.3,2.6-0.3L133,30L133,30z M128.3,31.9c-0.2,0-0.5,0.1-0.5,0.4c0,1.1,0,2.3,0,3.4
				c0.1,0.2,0.3,0.2,0.4,0.2l4.3,0c0.4,0,0.8,0.1,1-0.3l0-3.2l0-0.3c-0.1-0.2-0.2-0.2-0.3-0.2L128.3,31.9L128.3,31.9z"/>
			<path fill-rule="evenodd" clip-rule="evenodd" fill="#29338A" d="M161.9,37.7L161.9,37.7l-2.6,0c-0.2-0.4-0.5-0.9-0.7-1.3l-0.1,0
				h-4.7l-0.7,1.3h-2.7l4.2-7.7h3.1L161.9,37.7L161.9,37.7z M156.1,32l-1.5,2.7h2.9C157.1,33.8,156.6,32.9,156.1,32L156.1,32z"/>
		</g>
		<g>
			<g>
				<path fill="#7C7C7B" d="M49.9,33.8l-0.5,1.4h0c-0.1-0.3-0.2-0.8-0.5-1.4l-2.6-6.6h-2.6v10.4h1.7v-6.4c0-0.4,0-0.9,0-1.4
					c0-0.3,0-0.5,0-0.7h0c0.1,0.4,0.2,0.7,0.2,0.9l3.1,7.6h1.2l3.1-7.7c0.1-0.2,0.1-0.5,0.2-0.8h0c0,0.8-0.1,1.5-0.1,1.9v6.6H55
					V27.3h-2.5L49.9,33.8z"/>
				<rect x="56.7" y="30.2" fill="#7C7C7B" width="1.8" height="7.5"/>
				<path fill="#7C7C7B" d="M57.6,27.1c-0.3,0-0.5,0.1-0.7,0.3c-0.2,0.2-0.3,0.4-0.3,0.7c0,0.3,0.1,0.5,0.3,0.7
					c0.2,0.2,0.5,0.3,0.8,0.3c0.3,0,0.5-0.1,0.8-0.3c0.2-0.2,0.3-0.4,0.3-0.7c0-0.3-0.1-0.5-0.3-0.7C58.2,27.2,57.9,27.1,57.6,27.1z
					"/>
				<path fill="#7C7C7B" d="M64.7,30.2c-0.3-0.1-0.7-0.1-1-0.1c-0.8,0-1.5,0.2-2.1,0.5c-0.6,0.3-1.1,0.8-1.4,1.4
					c-0.3,0.6-0.5,1.3-0.5,2.1c0,0.7,0.2,1.4,0.5,1.9c0.3,0.6,0.8,1,1.3,1.3c0.6,0.3,1.2,0.5,1.9,0.5c0.8,0,1.5-0.2,2.1-0.5l0,0
					v-1.6l-0.1,0.1c-0.3,0.2-0.5,0.3-0.9,0.4c-0.3,0.1-0.6,0.2-0.8,0.2c-0.7,0-1.2-0.2-1.6-0.6c-0.4-0.4-0.6-1-0.6-1.8
					c0-0.8,0.2-1.4,0.6-1.8c0.4-0.5,1-0.7,1.6-0.7c0.6,0,1.1,0.2,1.7,0.6l0.1,0.1v-1.7l0,0C65.3,30.3,65,30.2,64.7,30.2z"/>
				<path fill="#7C7C7B" d="M70.5,30.1c-0.4,0-0.8,0.1-1.2,0.4c-0.3,0.2-0.5,0.6-0.7,1h0v-1.3h-1.8v7.5h1.8v-3.8
					c0-0.6,0.1-1.2,0.4-1.6c0.3-0.4,0.7-0.6,1.1-0.6c0.2,0,0.3,0,0.5,0.1c0.2,0.1,0.3,0.1,0.4,0.2l0.1,0.1v-1.8l0,0
					C71,30.1,70.8,30.1,70.5,30.1z"/>
				<path fill="#7C7C7B" d="M75.3,30.1c-1.2,0-2.2,0.4-2.9,1.1c-0.7,0.7-1.1,1.7-1.1,2.9c0,1.2,0.3,2.1,1,2.8c0.7,0.7,1.6,1,2.8,1
					c1.2,0,2.2-0.4,2.8-1.1c0.7-0.7,1.1-1.7,1.1-2.9c0-1.2-0.3-2.1-1-2.8C77.3,30.4,76.4,30.1,75.3,30.1z M76.7,35.8
					c-0.3,0.4-0.8,0.6-1.5,0.6c-0.6,0-1.2-0.2-1.5-0.6c-0.4-0.4-0.5-1-0.5-1.8c0-0.8,0.2-1.4,0.5-1.8c0.4-0.4,0.9-0.6,1.5-0.6
					c0.6,0,1.1,0.2,1.5,0.6c0.4,0.4,0.5,1,0.5,1.8C77.2,34.8,77,35.4,76.7,35.8z"/>
				<path fill="#7C7C7B" d="M82.9,33.3c-0.6-0.2-0.9-0.4-1.1-0.5c-0.1-0.1-0.2-0.3-0.2-0.6c0-0.2,0.1-0.4,0.3-0.5
					c0.2-0.1,0.4-0.2,0.8-0.2c0.3,0,0.6,0,0.9,0.1c0.3,0.1,0.6,0.2,0.8,0.4l0.1,0v-1.6l0,0c-0.2-0.1-0.5-0.2-0.8-0.2
					c-0.3-0.1-0.6-0.1-0.9-0.1c-0.8,0-1.5,0.2-2.1,0.6c-0.5,0.4-0.8,1-0.8,1.7c0,0.4,0.1,0.7,0.2,0.9c0.1,0.3,0.3,0.5,0.5,0.7
					c0.2,0.2,0.6,0.4,1.1,0.6c0.4,0.2,0.7,0.3,0.9,0.4c0.2,0.1,0.3,0.2,0.4,0.3c0.1,0.1,0.1,0.2,0.1,0.4c0,0.5-0.4,0.7-1.1,0.7
					c-0.3,0-0.6-0.1-1-0.2c-0.4-0.1-0.7-0.3-1-0.5l-0.1-0.1v1.7l0,0c0.3,0.1,0.6,0.2,0.9,0.3c0.4,0.1,0.7,0.1,1,0.1
					c0.9,0,1.6-0.2,2.2-0.6c0.5-0.4,0.8-1,0.8-1.7c0-0.5-0.1-0.9-0.4-1.3C84.1,33.9,83.6,33.6,82.9,33.3z"/>
				<path fill="#7C7C7B" d="M89.5,30.1c-1.2,0-2.2,0.4-2.9,1.1c-0.7,0.7-1.1,1.7-1.1,2.9c0,1.2,0.3,2.1,1,2.8c0.7,0.7,1.6,1,2.8,1
					c1.2,0,2.2-0.4,2.8-1.1c0.7-0.7,1.1-1.7,1.1-2.9c0-1.2-0.3-2.1-1-2.8C91.6,30.4,90.7,30.1,89.5,30.1z M90.9,35.8
					c-0.3,0.4-0.8,0.6-1.5,0.6c-0.6,0-1.2-0.2-1.5-0.6c-0.4-0.4-0.5-1-0.5-1.8c0-0.8,0.2-1.4,0.5-1.8c0.4-0.4,0.9-0.6,1.5-0.6
					c0.6,0,1.1,0.2,1.5,0.6c0.4,0.4,0.5,1,0.5,1.8C91.4,34.8,91.2,35.4,90.9,35.8z"/>
				<path fill="#7C7C7B" d="M102.6,31.7v-1.4h-1.8V28l-0.1,0l-1.7,0.5l0,0v1.7h-2.6v-0.9c0-0.4,0.1-0.8,0.3-1
					c0.2-0.2,0.5-0.3,0.8-0.3c0.3,0,0.5,0.1,0.8,0.2l0.1,0v-1.5l0,0c-0.2-0.1-0.6-0.1-1-0.1c-0.5,0-1,0.1-1.4,0.3
					c-0.4,0.2-0.7,0.5-1,1c-0.2,0.4-0.3,0.9-0.3,1.4v1h-1.2v1.4h1.2v6h1.8v-6h2.6v3.8c0,1.6,0.7,2.4,2.2,2.4c0.2,0,0.5,0,0.8-0.1
					c0.3-0.1,0.4-0.1,0.5-0.2l0,0v-1.4l-0.1,0c-0.1,0.1-0.2,0.1-0.4,0.2c-0.1,0-0.3,0.1-0.4,0.1c-0.3,0-0.6-0.1-0.8-0.3
					c-0.2-0.2-0.2-0.5-0.2-1v-3.5H102.6z"/>
			</g>
			<rect x="21.1" y="23.8" fill="#EA5B0C" width="8.3" height="8.3"/>
			<rect x="30.3" y="23.8" fill="#95C11F" width="8.3" height="8.3"/>
			<rect x="21.1" y="32.9" fill="#009FE3" width="8.3" height="8.3"/>
			<rect x="30.3" y="32.9" fill="#FDC300" width="8.3" height="8.3"/>
		</g>
	</g>
</g>
</svg>
