<?xml version="1.0" encoding="utf-8"?>
<!-- Generator: Adobe Illustrator 15.1.0, SVG Export Plug-In  -->
<!DOCTYPE svg PUBLIC "-//W3C//DTD SVG 1.1//EN" "http://www.w3.org/Graphics/SVG/1.1/DTD/svg11.dtd" [
	<!ENTITY ns_flows "http://ns.adobe.com/Flows/1.0/">
]>
<svg version="1.1"
	 xmlns="http://www.w3.org/2000/svg" xmlns:xlink="http://www.w3.org/1999/xlink" xmlns:a="http://ns.adobe.com/AdobeSVGViewerExtensions/3.0/"
	 x="0px" y="0px" width="183px" height="65px" viewBox="0 0 183 65" overflow="visible" enable-background="new 0 0 183 65"
	 xml:space="preserve">
<defs>
</defs>
<rect fill="#F8F8F8" width="183" height="65"/>
<path fill="#0F218C" d="M43.242,28.824c-0.072-0.301-0.054-0.618-0.015-0.782c0.102-0.475,0.427-1.006,1.367-1.006
	c0.874,0,1.39,0.541,1.39,1.355c0,0.277,0,0.924,0,0.924h3.722v-1.05c0-3.248-2.928-3.766-5.041-3.766
	c-2.651,0-4.818,0.879-5.214,3.318c-0.11,0.671-0.128,1.259,0.028,2.013c0.648,3.054,5.955,3.938,6.725,5.868
	c0.147,0.361,0.104,0.823,0.028,1.103c-0.12,0.501-0.458,1.01-1.454,1.01c-0.937,0-1.494-0.544-1.494-1.361l-0.003-1.437h-4.008
	v1.142c0,3.339,2.622,4.344,5.428,4.344c2.698,0,4.916-0.92,5.276-3.419c0.179-1.289,0.043-2.127-0.017-2.443
	C49.331,31.502,43.669,30.575,43.242,28.824L43.242,28.824z M138.445,31.526v2.18h1.531v2.161c0.003,0.194-0.008,0.401-0.039,0.568
	c-0.062,0.403-0.445,1.089-1.528,1.089s-1.458-0.686-1.521-1.089c-0.028-0.167-0.039-0.374-0.039-0.568v-6.825
	c0-0.241,0.014-0.506,0.066-0.706c0.072-0.363,0.395-1.082,1.486-1.082c1.141,0,1.424,0.757,1.489,1.082
	c0.047,0.214,0.047,0.576,0.047,0.576v0.83h3.759V29.25c0,0,0.02-0.511-0.026-0.989c-0.284-2.8-2.591-3.687-5.237-3.687
	c-2.651,0-4.914,0.895-5.242,3.687c-0.029,0.257-0.075,0.714-0.075,0.989v6.279c0,0.272,0.01,0.483,0.062,0.985
	c0.242,2.723,2.604,3.688,5.246,3.688c2.656,0,5-0.965,5.25-3.688c0.043-0.502,0.046-0.713,0.054-0.985v-4.003H138.445
	L138.445,31.526z M112.517,24.977h-3.781v11.047c0.008,0.191,0,0.409-0.031,0.565c-0.079,0.373-0.394,1.087-1.434,1.087
	c-1.028,0-1.351-0.714-1.422-1.087c-0.039-0.156-0.044-0.374-0.039-0.565V24.977h-3.775V35.68c-0.005,0.278,0.018,0.842,0.031,0.989
	c0.261,2.787,2.458,3.695,5.205,3.695c2.751,0,4.945-0.908,5.214-3.695c0.017-0.146,0.047-0.711,0.032-0.989V24.977L112.517,24.977z
	 M77.817,24.977l-1.885,11.67l-1.883-11.67h-6.094L67.634,39.91h3.733l0.1-13.827l2.567,13.827h3.786l2.571-13.827l0.102,13.827
	h3.741l-0.335-14.933H77.817L77.817,24.977z M55.261,24.977L52.495,39.91h4.033l2.086-13.827l2.032,13.827h4.005l-2.753-14.933
	H55.261L55.261,24.977z M125.712,36.999l-3.514-12.021h-5.541v14.776h3.661l-0.211-12.407l3.776,12.407h5.314V24.977h-3.689
	L125.712,36.999L125.712,36.999z M91.808,28.862c-0.067-0.296-0.049-0.608-0.014-0.771c0.105-0.478,0.43-0.998,1.352-0.998
	c0.863,0,1.367,0.536,1.367,1.344c0,0.27,0,0.911,0,0.911h3.684v-1.04c0-3.218-2.886-3.723-4.975-3.723
	c-2.627,0-4.776,0.868-5.169,3.289c-0.104,0.658-0.128,1.243,0.036,1.989c0.639,3.019,5.896,3.896,6.658,5.804
	c0.134,0.361,0.097,0.822,0.026,1.094c-0.114,0.496-0.45,0.998-1.44,0.998c-0.929,0-1.488-0.535-1.488-1.341l-0.001-1.434h-3.963
	v1.14c0,3.301,2.586,4.297,5.37,4.297c2.668,0,4.871-0.91,5.226-3.383c0.169-1.276,0.039-2.106-0.026-2.419
	C97.829,31.521,92.229,30.59,91.808,28.862L91.808,28.862z"/>
</svg>
