<?xml version="1.0" encoding="utf-8"?>
<!-- Generator: Adobe Illustrator 15.1.0, SVG Export Plug-In  -->
<!DOCTYPE svg PUBLIC "-//W3C//DTD SVG 1.1//EN" "http://www.w3.org/Graphics/SVG/1.1/DTD/svg11.dtd" [
	<!ENTITY ns_flows "http://ns.adobe.com/Flows/1.0/">
]>
<svg version="1.1"
	 xmlns="http://www.w3.org/2000/svg" xmlns:xlink="http://www.w3.org/1999/xlink" xmlns:a="http://ns.adobe.com/AdobeSVGViewerExtensions/3.0/"
	 x="0px" y="0px" width="183px" height="65px" viewBox="0 0 183 65" overflow="visible" enable-background="new 0 0 183 65"
	 xml:space="preserve">
<defs>
</defs>
<rect fill="#F8F8F8" width="183" height="65"/>
<path fill-rule="evenodd" clip-rule="evenodd" d="M61.619,25.375c0.701,0,1.403,0,2.104,0c0,1.628,0,3.257,0,4.885
	c-0.646,0.039-1.363,0.006-2.036,0.017c-0.096-1.341-1.019-2.065-2.07-2.55c-1.776-0.817-4.452-1.083-6.789-0.795
	c-1.117,0.137-2.38,0.442-2.75,1.225c-0.516,1.093,0.888,1.436,1.706,1.59c0.872,0.165,1.557,0.214,2.334,0.298
	c3.324,0.361,6.614,0.524,8.794,2.103c1.015,0.734,1.859,1.926,1.656,3.709c-0.177,1.536-1.183,2.49-2.336,3.129
	c-1.192,0.663-2.665,1.033-4.206,1.259c-0.76,0.112-1.562,0.201-2.385,0.149c-1.59-0.099-3.146-0.491-4.57-0.861
	c-0.547-0.142-1.071-0.283-1.589-0.463c-0.318-0.112-0.505-0.288-0.978-0.282c-0.038,0.27-0.005,0.612-0.016,0.911
	c-0.801,0-1.602,0-2.402,0c0-1.849,0-3.698,0-5.547c0.763,0,1.523,0,2.286,0c0.057,1.395,0.901,2.157,1.87,2.715
	s2.221,0.91,3.494,1.093c2.627,0.377,5.92,0.282,6.924-1.706c-0.055-0.657-0.547-0.947-1.027-1.159
	c-1.473-0.651-3.67-0.773-5.498-0.978c-2.492-0.278-5.133-0.67-6.823-1.821c-0.896-0.61-1.528-1.486-1.474-2.881
	c0.05-1.273,0.755-2.161,1.523-2.782c1.531-1.237,3.981-1.987,6.623-2.12c2.227-0.111,4.239,0.437,5.93,1.06
	c0.278,0.103,0.574,0.21,0.844,0.331c0.247,0.11,0.533,0.377,0.828,0.182C61.66,25.913,61.601,25.604,61.619,25.375z"/>
<path fill-rule="evenodd" clip-rule="evenodd" d="M77.533,24.547c2.986-0.137,5.612,0.628,7.568,1.805
	c1.015,0.61,1.814,1.262,2.551,2.203c0.668,0.855,1.285,2.001,1.425,3.328c0.298,2.881-1.375,4.939-3.081,6.227
	c-0.905,0.682-1.935,1.227-3.113,1.639c-1.17,0.41-2.5,0.746-3.992,0.746c-0.766,0-1.576,0.029-2.301-0.05
	c-2.155-0.233-3.849-0.827-5.382-1.738c-0.975-0.58-1.837-1.301-2.55-2.202c-0.706-0.893-1.263-1.962-1.408-3.345
	c-0.16-1.521,0.268-2.784,0.861-3.792c1.166-1.979,3.07-3.303,5.416-4.09c0.57-0.191,1.201-0.372,1.87-0.497
	C76.074,24.653,76.768,24.583,77.533,24.547z M73.625,28.688c-0.728,0.638-1.443,1.58-1.722,2.732
	c-0.083,0.342-0.141,0.935-0.133,1.192c0.054,1.811,0.979,3.064,2.038,3.908c1.134,0.906,2.652,1.439,4.487,1.441
	c1.823,0.002,3.267-0.651,4.339-1.573c1.044-0.9,1.975-2.198,1.888-4.008c-0.091-1.854-1.038-3.072-2.054-3.858
	c-1.154-0.893-2.637-1.426-4.487-1.424C76.177,27.1,74.611,27.825,73.625,28.688z"/>
<path fill-rule="evenodd" clip-rule="evenodd" d="M90.914,25.79c2.094,0,4.224,0,6.359,0c0.302,0,0.647-0.051,0.895,0
	c0.186,0.038,0.448,0.368,0.629,0.53c3.033,2.722,6.054,5.455,9.075,8.147c0-1.65,0-3.673,0-5.431c0-0.285,0.03-0.595-0.032-0.778
	c-0.27-0.762-1.869-0.335-2.866-0.447c0-0.673,0-1.347,0-2.02c2.815,0,5.63,0,8.445,0c0,0.673,0,1.347,0,2.02
	c-0.407,0-0.798,0-1.225,0c-0.653,0-1.283-0.112-1.458,0.397c-0.12,0.352-0.049,0.972-0.049,1.424c-0.001,3.342,0,7.012,0,10.234
	c-0.945,0-2.09,0-3.048,0c-0.161,0-0.612-0.48-0.745-0.596c-3.469-3.035-6.893-6.203-10.333-9.174c0,1.96,0,4.623,0,6.855
	c0,0.333-0.06,0.8,0.065,0.927c0.175,0.177,0.995,0.083,1.325,0.083c0.506,0,0.933,0,1.391,0c0,0.635,0,1.27,0,1.905
	c-2.799,0-5.597,0-8.396,0c0-0.635,0-1.27,0-1.905c0.383,0,0.877,0,1.357,0c0.418,0,1.015,0.069,1.177-0.166
	c0.12-0.174,0.065-0.807,0.065-1.192c0-2.533,0-4.968,0-7.502c0-0.372,0.072-0.98-0.032-1.208c-0.135-0.291-0.752-0.232-1.192-0.232
	c-0.525,0-1.019,0-1.425,0c0-0.607,0-1.214,0-1.822C90.896,25.815,90.896,25.792,90.914,25.79z"/>
<path fill-rule="evenodd" clip-rule="evenodd" d="M115.093,25.79c3.328,0,6.656,0,9.984,0c0.026,0.513,0.029,1.399,0,2.02
	c-0.249,0-0.484,0-0.778,0c-0.239,0-0.6-0.046-0.695,0.083c-0.15,0.203,0.12,0.511,0.231,0.646c0.97,1.182,1.961,2.179,2.998,3.296
	c0.05,0.053,0.211,0.248,0.231,0.248c0.023,0,0.188-0.2,0.232-0.248c1.094-1.19,2.027-2.301,3.179-3.478
	c0.065-0.067,0.183-0.191,0.183-0.281c-0.005-0.472-1.161-0.187-1.606-0.265c0-0.673,0-1.347,0-2.02c2.705,0,5.409,0,8.114,0
	c0,0.673,0,1.347,0,2.02c-0.498,0-1.143,0-1.706,0c-0.195,0-0.411-0.036-0.562,0c-0.117,0.028-0.314,0.278-0.447,0.414
	c-1.552,1.585-2.993,3.25-4.537,4.852c-0.396,0.41-0.808,0.881-1.242,1.325c-0.132,0.133-0.369,0.332-0.397,0.447
	c-0.048,0.198,0,0.515,0,0.778c0,0.572,0,0.942,0,1.541c0,0.264-0.021,0.61,0.049,0.711c0.151,0.216,0.894,0.116,1.292,0.116
	c0.528,0,1.042,0,1.476,0c0,0.603,0,1.204,0,1.806c-3.083,0.027-6.679,0.027-9.82,0c0-0.602,0-1.203,0-1.806
	c0.379,0,0.847,0,1.324,0c0.346,0,1.044,0.078,1.208-0.116c0.179-0.211,0.083-1.104,0.083-1.54c0-0.244,0-0.529,0-0.812
	c0-0.276,0.045-0.594,0-0.811c-0.026-0.129-0.232-0.32-0.364-0.464c-1.839-2.016-3.672-3.974-5.514-6.028
	c-0.12-0.134-0.302-0.387-0.398-0.414c-0.159-0.045-0.429,0-0.646,0c-0.599,0-1.323,0-1.888,0c-0.026-0.619-0.028-1.352,0-1.971
	C115.057,25.815,115.059,25.799,115.093,25.79z"/>
</svg>
