<?xml version="1.0" encoding="utf-8"?>
<!-- Generator: Adobe Illustrator 15.1.0, SVG Export Plug-In  -->
<!DOCTYPE svg PUBLIC "-//W3C//DTD SVG 1.1//EN" "http://www.w3.org/Graphics/SVG/1.1/DTD/svg11.dtd" [
	<!ENTITY ns_flows "http://ns.adobe.com/Flows/1.0/">
]>
<svg version="1.1"
	 xmlns="http://www.w3.org/2000/svg" xmlns:xlink="http://www.w3.org/1999/xlink" xmlns:a="http://ns.adobe.com/AdobeSVGViewerExtensions/3.0/"
	 x="0px" y="0px" width="183px" height="65px" viewBox="0 0 183 65" overflow="visible" enable-background="new 0 0 183 65"
	 xml:space="preserve">
<defs>
</defs>
<rect fill="#F8F8F8" width="183" height="65"/>
<path fill="#95C23D" d="M116.614,39.405c-3.189,0.021-6.208,0.046-7.049-0.029c-1.703-0.147-2.841-1.262-2.974-2.901
	c-0.09-1.075-0.09-1.966-0.006-2.815c0.156-1.596,1.49-3.117,2.979-3.188c0.533-0.029,1.96-0.026,4.541-0.015l7.517,0.015v-3.118
	c0,0-5.987-0.007-7.785-0.014c-2.418-0.011-3.633-0.013-4.403,0.014c-1.694,0.064-3.114,0.668-4.219,1.789
	c-1.044,1.059-1.667,2.742-1.761,4.447c-0.052,0.919-0.07,2.122,0,2.836c0.173,1.833,0.767,3.271,1.761,4.279
	c1.063,1.082,2.683,1.768,4.22,1.789c1.262,0.016,12.188,0,12.188,0v-3.117C121.623,39.375,118.305,39.389,116.614,39.405z"/>
<path fill="#95C23D" d="M82.682,27.518v3.115c0,0,7.295,0,7.415,0c0,0.126,0,11.804,0,11.804h3.132c0,0,0-11.678,0-11.804
	c0.125,0,7.417,0,7.417,0v-3.115H82.682z"/>
<path fill="#95C23D" d="M79.43,33.41c-0.023-1.678-0.614-3.118-1.763-4.281c-1.195-1.217-3.023-1.724-4.217-1.787
	c-1.039-0.059-5.135-0.04-6.096,0c-1.354,0.058-2.342,0.461-2.836,0.83c-0.006,0.003-0.011,0.002-0.011-0.006
	c0-0.355,0-5.667,0-5.667h-3.131v19.993h3.126c0,0-0.061-8.184,0.01-9.075c0.123-1.584,1.325-2.828,2.857-2.962
	c1.229-0.105,4.916-0.077,6.073,0.002c1.59,0.109,2.762,1.352,2.854,3.023c0.029,0.615-0.002,9.012-0.002,9.012h3.135
	C79.43,42.493,79.438,34.129,79.43,33.41z"/>
</svg>
